<?xml version="1.0" encoding="UTF-8"?>
<!DOCTYPE svg  PUBLIC '-//W3C//DTD SVG 1.1//EN'  'http://www.w3.org/Graphics/SVG/1.1/DTD/svg11.dtd'>
<svg width="969.1px" height="975.1px" enable-background="new 0 0 969.097 975.098" version="1.1" viewBox="0 0 969.097 975.098" xml:space="preserve" xmlns="http://www.w3.org/2000/svg">
		<g clip-rule="evenodd" fill-rule="evenodd">
			<path d="m472.22 172.51c1.544 27.032 5.365 54.167 4.101 81.067-1.899 40.448-15.176 77.652-42.788 108.51-31.742 35.47-80.768 42.702-122.96 18.36-2.14-1.237-4.338-2.372-6.51-3.554-1.478-1.137-2.955-2.275-4.433-3.412-0.646-0.319-1.292-0.637-1.939-0.956-2.87-2.313-5.739-4.626-8.609-6.94-0.717-0.568-1.433-1.137-2.149-1.705-0.78-0.747-1.559-1.494-2.338-2.243-0.708-0.677-1.415-1.355-2.122-2.033-0.746-0.718-1.49-1.437-2.235-2.156l6e-3 7e-3c-2.138-2.199-4.276-4.399-6.414-6.6 0 0 0.061 0.069 0.06 0.069-0.731-0.809-1.462-1.617-2.194-2.425-1.083-1.366-2.167-2.733-3.25-4.102-0.445-0.502-0.89-1.005-1.334-1.507l-0.271-0.371c-1.956-2.38-3.913-4.76-5.87-7.141 0.069-0.747-0.209-1.323-0.835-1.729-0.524-0.652-1.047-1.302-1.572-1.952l-0.065-0.112c-0.674-0.588-1.349-1.175-2.021-1.764-1.655-3.04-3.311-6.083-4.967-9.125-0.514-0.7-1.028-1.401-1.542-2.099-0.506-0.82-1.013-1.644-1.516-2.462 0.13-0.65-0.13-1.07-0.774-1.262-3.494-6.704-6.988-13.408-10.481-20.114-0.836-1.99-1.671-3.981-2.508-5.974-0.838-2.32-1.678-4.644-2.518-6.965-0.549-0.66-1.099-1.321-1.647-1.981-2.082-6.527-4.162-13.051-6.242-19.578-0.776-2.941-1.553-5.882-2.331-8.825-0.619-2.867-1.238-5.736-1.856-8.606-0.763-3.746-1.526-7.492-2.288-11.239-0.746-4.872-1.491-9.744-2.235-14.616-0.314-4.994-0.631-9.989-0.946-14.981-0.415-10.368-1.872-20.822-1.007-31.082 1.353-16.027 3.122-32.203 6.896-47.789 3.153-13.024 9.434-25.291 14.329-37.894 0.482-0.699 0.963-1.399 1.445-2.098 2.41-4.315 4.819-8.63 7.23-12.945 0.911-1.397 1.822-2.796 2.731-4.193 0.537-0.741 1.074-1.481 1.611-2.225 0.639-0.791 1.277-1.583 1.917-2.377l0.098-0.167c0.511-0.618 1.023-1.234 1.535-1.851 7.295-10.028 13.112-21.649 26.74-24.866l1.617-1.296 0.353-0.126c0.832-0.593 1.663-1.187 2.494-1.781 4.268-2.129 8.536-4.26 12.803-6.392 1.769-0.639 3.538-1.277 5.305-1.916 3.969-0.973 7.937-1.948 11.905-2.921 11.524 5e-3 23.048 6e-3 34.572 0.011 3.932 0.96 7.864 1.923 11.797 2.883 1.098 0.445 2.193 0.889 3.288 1.331 2.619 0.967 5.24 1.934 7.86 2.897l3.069 1.563s0.445 0.12 0.445 0.122l0.446 0.661 0.762-0.072c3.674 2.045 7.347 4.092 11.019 6.136 0.818 0.591 1.638 1.184 2.454 1.777l0.389 0.158c0.521 0.435 1.043 0.869 1.564 1.305 7.242 6.097 14.484 12.193 21.726 18.291 1.458 1.387 2.919 2.776 4.378 4.161 1.396 1.503 2.79 3.008 4.187 4.51 0.707 0.819 1.414 1.638 2.12 2.454 19.052 24.031 32.566 51.052 43.009 79.725 0.721 2.428 1.443 4.855 2.165 7.284 0.36 1.886 0.719 3.774 1.08 5.661 0.397 0.874 0.794 1.749 1.192 2.623-0.243 0.652-0.097 1.201 0.437 1.648 0.54 2.43 1.09 4.86 1.63 7.3z" fill="#1B6067"/>
			<path d="m508.7 152.1c0.768-2.875 1.536-5.751 2.303-8.627 2.178-5.759 4.354-11.515 6.533-17.273 0.567-0.277 0.829-0.728 0.781-1.359 0.685-1.646 1.372-3.287 2.056-4.93 5.279-9.617 10.554-19.238 15.83-28.855 0 0 0.424-0.654 0.422-0.654 17.823-27.239 40.266-49.443 69.755-63.958 1.443-0.656 2.889-1.311 4.332-1.967 2.175-0.708 4.354-1.417 6.527-2.126 3.618-0.747 7.236-1.492 10.858-2.239 11.522-0.021 23.045-0.043 34.571-0.063 4.351 0.73 8.701 1.461 13.053 2.19 10.607 6.535 22.562 11.627 31.486 19.959 11.613 10.842 20.824 24.258 31.069 36.566l-9e-3 -7e-3c0.74 1.431 1.481 2.861 2.223 4.294 0.744 1.428 1.486 2.859 2.231 4.287 2.151 5.048 4.304 10.098 6.454 15.144 2.118 7.215 4.232 14.429 6.348 21.644 2.346 10.759 4.688 21.519 7.033 32.278 0.113 7.249 0.225 14.495 0.335 21.742 0 2.877 0 5.755 1e-3 8.631-0.116 7.955-0.229 15.907-0.345 23.863-1.319 5.794-2.644 11.59-3.968 17.384-0.173 2.115-0.35 4.232-0.525 6.345-0.693 2.899-1.384 5.796-2.072 8.696-0.783 3.584-1.561 7.17-2.341 10.752-0.631 2.161-1.259 4.319-1.89 6.48-0.828 2.877-1.66 5.754-2.488 8.633-0.85 2.111-1.702 4.226-2.553 6.339-0.522 1.504-1.043 3.008-1.564 4.511-0.746 2.165-1.493 4.33-2.238 6.495-0.659 1.445-1.317 2.893-1.978 4.34-5.181 10.052-10.362 20.105-15.544 30.156l-0.027 0.025c-18.321 26.709-39.572 50.314-69.05 65.21-1.43 0.871-2.858 1.744-4.289 2.616-2.178 0.574-4.354 1.15-6.531 1.727-1.547 0.394-3.098 0.788-4.646 1.181-3.504 0.998-7.009 1.994-10.514 2.992-10.857 0.048-21.72 0.098-32.579 0.146-3.659-1.004-7.318-2.007-10.977-3.011-2.09-0.502-4.182-1.003-6.277-1.509-17.209-8.336-33.757-18.458-44.094-34.539-11.45-17.806-19.967-37.497-29.76-56.367-0.735-2.885-1.47-5.769-2.206-8.653-0.625-2.175-1.251-4.352-1.875-6.529-0.202-1.409-0.404-2.816-0.605-4.226-1.351-5.765-2.702-11.529-4.053-17.292 4e-3 -21.697 7e-3 -43.393 0.01-65.086 1.346-5.769 2.691-11.539 4.036-17.304 0.159-1.419 0.318-2.834 0.479-4.25 0.763-2.872 1.528-5.745 2.29-8.617 0.677-2.888 1.354-5.778 2.032-8.667 0.66-2.15 1.31-4.33 1.96-6.5z" fill="#1C6067"/>
			<path d="m910.41 549.52c-20.08 21.668-41.619 41.44-67.178 56.816-13.796 8.297-26.407 18.249-25.64 37.771 0.182 4.682-7.159 9.238-9.61 14.517-15.225 32.782-29.342 66.098-45.269 98.529-8.975 18.268-20.139 35.554-31.354 52.595-10.957 16.653-22.368 33.165-35.195 48.377-11.178 13.259-24.236 25.033-37.163 36.688-9.646 8.694-20.261 16.352-30.752 24.051-3.598 2.642-8.304 3.708-12.2 6.007-47.412 27.928-99.447 31.09-152.58 28.95-33.931-1.367-66.07-9.822-96.198-24.965-13.618-6.845-26.113-16.104-38.57-25.033-31.079-22.28-53.356-52.948-75.819-83.024-10.834-14.506-17.598-32.028-26.445-48.052-14.097-25.533-29.523-50.404-42.279-76.581-12.269-25.173-21.86-51.651-32.627-77.554-0.984-0.759-1.968-1.522-2.951-2.281-1.311-0.646-2.621-1.292-3.931-1.938-0.921-0.598-1.839-1.198-2.759-1.796l-0.184-0.067c-0.607-0.457-1.213-0.915-1.82-1.372-2.073-1.067-4.145-2.13-6.218-3.196-2.274-1.411-4.549-2.825-6.824-4.239-1.238-0.775-2.477-1.55-3.718-2.324-0.923-0.664-1.845-1.329-2.767-1.997-2.964-2.116-5.93-4.232-8.896-6.35-0.619-0.506-1.237-1.012-1.854-1.519-1.398-0.978-2.795-1.958-4.193-2.937-0.795-0.68-1.588-1.36-2.382-2.042l-0.034-0.024c-0.689-0.591-1.378-1.181-2.069-1.776-18.309-16.583-38.124-31.788-49.871-54.387-0.628-0.858-1.259-1.718-1.888-2.575-5.198-10.007-11.132-19.717-15.354-30.12-3.214-7.913-4.336-16.691-6.229-25.121-1.005-4.475-1.668-9.025-2.484-13.542-0.048-0.707-0.093-1.414-0.139-2.121-0.027-1.462-0.054-2.923-0.081-4.382-1e-3 -8.616-4e-3 -17.233-6e-3 -25.851 0.142-2.895 0.285-5.788 0.427-8.683 0.085-0.722 0.171-1.443 0.257-2.165 0.735-3.96 1.472-7.921 2.208-11.886 1.172-3.967 2.345-7.935 3.52-11.899 0.23-1.233 0.461-2.464 0.691-3.696 0.465-0.906 0.928-1.813 1.394-2.718 3.817-8.562 7.633-17.125 11.452-25.688 1.115-1.551 2.23-3.101 3.347-4.652 3.148-4.357 6.296-8.714 9.444-13.072 1.279-1.454 2.559-2.908 3.836-4.364l0.324-0.396c1.057-1.149 2.113-2.298 3.17-3.447 1.886-1.725 3.771-3.45 5.656-5.174 1.475-1.241 2.948-2.484 4.42-3.726 12.23-6.591 24.461-13.186 36.692-19.779 1.666-0.523 3.331-1.044 4.998-1.567 2.632-0.416 5.266-0.832 7.898-1.247 13.711 0.029 27.423 0.06 41.134 0.088 2.142 0.294 4.284 0.586 6.426 0.88 2.903 0.826 5.805 1.654 8.708 2.481 1.934 0.702 3.867 1.407 5.801 2.11 1.637 0.661 3.273 1.327 4.908 1.991 1.483 0.673 2.965 1.346 4.449 2.019 1.42 0.715 2.841 1.428 4.264 2.138l0.049 0.022c0.679 0.484 1.358 0.97 2.037 1.456 5.07 3.125 10.141 6.248 15.211 9.371 1.45 1.169 2.899 2.34 4.35 3.509 3.686 3.123 7.372 6.243 11.058 9.364 4.193 4.415 8.387 8.829 12.58 13.243 0.969 1.374 1.939 2.745 2.909 4.119 1.204 1.475 2.406 2.953 3.61 4.427 1.451 2.138 2.901 4.277 4.351 6.416 0.6 0.89 1.198 1.78 1.798 2.671 0 0-0.227-0.217-0.225-0.217 0.9 1.383 1.799 2.768 2.698 4.152 33.738 68.533 32.655 139.4 12.674 210.95-3.943 14.117-12.1 27.674-20.797 39.692-10.205 14.1-25.444 19.656-43.064 14.93-12.801-3.435-25.477-7.347-38.496-11.127-0.146 0.635-0.833 1.799-0.51 2.497 30.022 64.703 58.478 130.23 98.947 189.48 28.383 41.554 62.206 77.376 108.24 99.599 29.329 14.16 60.529 20.775 93.151 22.856 54.541 3.479 105.55-6.489 152.2-35.568 41.848-26.083 72.148-63.198 98.411-104.1 35.287-54.958 61.118-114.64 87.25-174.17 0.227-0.513-0.063-1.254-0.138-2.242-13.328 4.124-26.477 8.437-39.767 12.249-20.502 5.881-36.734-1.022-49.244-17.573-14.936-19.761-21.43-42.967-25.498-66.783-8.576-50.199-8.427-100.08 7.012-149.27 9.189-29.283 27.872-52.153 48.439-73.862 0.886-0.935 2.533-1.148 3.827-1.697 1.458-1.171 2.913-2.344 4.371-3.515 8.661-5.001 17.326-10.002 25.986-15.001 1.599-0.686 3.197-1.372 4.798-2.055 1.25-0.27 2.503-0.54 3.756-0.81 3.21-1.131 6.418-2.265 9.626-3.395 30.408-5.083 59.967-4.429 87.081 12.833 0.908 0.651 1.813 1.306 2.719 1.958l-6e-3 -6e-3c0.706 0.55 1.414 1.101 2.123 1.649 2.188 1.605 4.378 3.21 6.566 4.815 1.436 1.219 2.873 2.439 4.312 3.659 0.181 0.678 0.622 0.995 1.321 0.955 1.01 1.026 2.016 2.052 3.024 3.077 3.583 3.925 7.168 7.849 10.752 11.774 0.685 0.814 1.37 1.632 2.057 2.446 1.937 2.872 3.874 5.741 5.811 8.613 0.943 1.407 1.887 2.815 2.827 4.222l-0.051-0.067c1.509 2.807 3.021 5.615 4.529 8.421 1.908 4.437 3.821 8.875 5.732 13.313 0.885 2.257 1.771 4.515 2.656 6.773 2.353 12.082 4.709 24.166 7.064 36.249 0 2.142 1e-3 4.282 1e-3 6.423 2e-3 2.9 2e-3 5.802 2e-3 8.706-0.042 6.459-0.086 12.918-0.128 19.376-0.071 0.774-0.147 1.546-0.217 2.322l-0.585 0.639 0.373 0.717c-2.138 9.5-4.275 19-6.413 28.499-0.793 2.216-1.584 4.431-2.373 6.647-4.968 10.037-9.935 20.073-14.902 30.11-1.16 1.537-2.32 3.071-3.48 4.606-2.424 3.545-4.845 7.092-7.267 10.641-0.654 0.78-1.31 1.561-1.962 2.343l-0.072 0.101c-1.03 1.27-2.03 2.57-3.02 3.87z" fill="#1D6168"/>
			<path d="m491.06 449.06c26.384-7.193 46.249 5.833 64.618 23.562 75.27 72.66 131.91 156.24 153.55 260.49 2.987 14.384 2.877 28.461-2.504 42.352-4.721 12.187-12.453 21.267-23.973 27.942-22.737 13.177-46.307 23.247-73.097 22.747-23.825-0.443-44.941-8.167-62.676-24.653-36.061-33.523-72.895-36.096-109.68-3.167-47.026 42.092-104.5 31.308-147.17-0.11-18.986-13.982-23.944-35.804-20.007-58.329 19.444-111.27 76.427-200.75 160.3-274.62 17.61-15.5 37.29-20.43 60.64-16.21z" fill="#1C6067"/>
			<path d="m645.49 390.35c2.178-0.576 4.353-1.152 6.531-1.727-2.18 0.58-4.35 1.16-6.53 1.73z" fill="#D9E6E6"/>
			<path d="m502.56 284.06c0.625 2.178 1.25 4.354 1.875 6.529-0.63-2.17-1.25-4.35-1.88-6.53z" fill="#D9E6E6"/>
		</g>
</svg>
